# xmcd CD database file
#
# Track frame offsets:
#	150
#	11768
#	24747
#	36293
#	48806
#	63285
#	74457
#	84815
#	95113
#	104904
#	118688
#	130009
#	140287
#	151332
#	162519
#	173497
#	186237
#	197237
#	209868
#	219974
#	231209
#	242685
#	253104
#	263791
#	274278
#	284161
#	296634
#	308227
#
# Disc length: 4265 seconds
#
# Revision: 0
# Processed by: cddbd v1.5.1PL2 Copyright (c) Steve Scherf et al.
# Submitted via: CDex 1.50beta10
#
DISCID=b110a71c
DTITLE=Patsy Cline - Patsy Cline 28 Golden Hits
DYEAR=2005
DGENRE=Country
TTITLE0=Walkin' After Midnight
TTITLE1=Life's Railway to Heaven
TTITLE2=In Care of the Blues
TTITLE3=Fingerprints
TTITLE4=Then you'll Know
TTITLE5=Hidin' Out
TTITLE6=Too Many Secrets
TTITLE7=Walkin' Dream
TTITLE8=I'm Blue Again
TTITLE9=A Church, A Courtroom, and Then Goodbye
TTITLE10=Crazy Dreams
TTITLE11=How Can I face Tomorrow
TTITLE12=Stop the World
TTITLE13=Hungry For Love
TTITLE14=I Cried All the Way to the Alter
TTITLE15=Yes, I Understand
TTITLE16=I Can't Forget You
TTITLE17=Just A Closer Walk With Thee
TTITLE18=Three Cigarettes In An Ashtray
TTITLE19=Just Out Of Reach
TTITLE20=I've Loved and Lost Again
TTITLE21=I Love You Honey
TTITLE22=Stop, Look and Listen
TTITLE23=Lovesick Blues
TTITLE24=Turn The Cards Slowly
TTITLE25=Poor Man's Roses or a Rich Man's Gold
TTITLE26=Let the TearDrops Fall
TTITLE27=If I Could Only Stay Asleep
EXTD=YEAR: 2005
EXTT0=
EXTT1=
EXTT2=
EXTT3=
EXTT4=
EXTT5=
EXTT6=
EXTT7=
EXTT8=
EXTT9=
EXTT10=
EXTT11=
EXTT12=
EXTT13=
EXTT14=
EXTT15=
EXTT16=
EXTT17=
EXTT18=
EXTT19=
EXTT20=
EXTT21=
EXTT22=
EXTT23=
EXTT24=
EXTT25=
EXTT26=
EXTT27=
PLAYORDER=
